<svg version="1.2" xmlns="http://www.w3.org/2000/svg" viewBox="0 0 800 800" width="800" height="800">
	<title>flying-ghost-publicdomainvectors</title>
	<style>
		.s0 { fill: #e9eff5 } 
		.s1 { fill: #ffffff } 
		.s2 { fill: #c6d5e3 } 
		.s3 { fill: #091c30 } 
		.s4 { fill: #132e4a } 
	</style>
	<g id="publicdomainvectors.org">
		<path id="&lt;Path&gt;" class="s0" d="m587.1 172.6c60.8 280.5 23.7 242.9 152.7 422.9 5.4 7.6 6.5 19.3 2.6 28.7-3.9 9.4-11.5 13.4-18.6 9.9l-33.9-16.9c-7.2-3.6-14.3-2.3-20.7 3.6-6.4 5.8-10.2 14.7-11.1 25.6l-2.3 28c-1.2 15.5-8.3 27.6-18.5 32-10.3 4.4-20.7-0.4-27.4-12.4l-16.1-28.8c-8.7-15.7-21.6-22.6-35.2-19.2-13.6 3.5-24.1 16.5-28.6 35.6l-10.3 42.9c-4.6 19.1-15 32.1-28.6 35.6-13.6 3.5-26.4-3.5-35.2-19.1l-23.4-41.8c-22.2-39.6-62.8-41.5-86.7-4l-41.3 64.9c-9.6 15-23.1 20.7-36.7 15.4-13.6-5.2-23.4-20-26.6-40l-3-18.6c-2.9-18-11-31.6-22.9-38.3-11.8-6.6-24.1-4.4-34.5 6.2l-48.2 49.2c-9 9.2-20.4 9.3-29.5 0.2-9.1-9.1-13.2-24.7-10.6-40.4l4.2-25.7c3.6-21.4-3.4-42.9-17-52.5-3.2-2.2-5.9-6.1-7.5-11.2-3-9.7-1.2-20.8 4.4-27.6 124.6-148.3 94.5-162.6 131.9-394.1 33.7-208.1 334.3-215.1 378.6-10.1z"/>
		<path id="&lt;Path&gt;" class="s1" d="m587.1 172.6c5.6 25.7 10.3 48.7 14.5 69.5-32.9-121-94.6-221.2-239.2-184.3-203.5 51.9-75.9 274.2-248.4 475l-0.9-1.5c82.2-108.8 62.2-143.2 95.4-348.6 33.7-208.1 334.3-215.1 378.6-10.1z"/>
		<path id="&lt;Path&gt;" class="s2" d="m655.4 466.1c15.8 32 40.5 68.1 84.4 129.4 5.4 7.6 6.5 19.3 2.6 28.7-3.9 9.4-11.5 13.4-18.6 9.9l-33.9-16.9c-7.2-3.6-14.3-2.3-20.7 3.5-6.4 5.9-10.2 14.8-11.1 25.7l-2.3 28c-1.2 15.5-8.3 27.6-18.5 32-10.3 4.4-20.7-0.4-27.4-12.4l-16.1-28.8c-8.7-15.7-21.6-22.6-35.2-19.2-13.6 3.5-24.1 16.5-28.6 35.6l-10.3 42.9c-4.6 19.1-15 32.1-28.6 35.6-13.6 3.5-26.4-3.5-35.2-19.1l-23.4-41.8c-22.2-39.6-62.8-41.5-86.7-4l-41.3 64.9c-9.6 15-23.1 20.7-36.7 15.4-13.6-5.2-23.4-20-26.6-40l-3-18.6c-2.9-18-11-31.6-22.9-38.3-11.8-6.6-24.1-4.4-34.5 6.2l-48.2 49.2c-9 9.2-20.4 9.3-29.5 0.2-9.1-9.1-13.2-24.7-10.6-40.4l4.2-25.7c3.6-21.4-3.4-42.9-17-52.5-3.2-2.2-5.9-6.1-7.5-11.2-3-9.7-1.2-20.8 4.4-27.6 18.5-22 33.5-41 45.9-58.2-23 37.3-42.1 75.1-2.7 75.2-24.5 194.7 80.1 40.1 115-75.5-3.6 208.5 68.8 271.7 132.3-4.3 60.1 145.4 151.1 265.7 158.8-12.2 78.1 166.2 126 178.7 96.3 7.2 86.5 148.1 96.1 87.1 33.2-42.9z"/>
		<path id="&lt;Path&gt;" class="s3" d="m341.6 274.5c18 0 32.7-20.8 32.7-46.3 0-25.6-14.7-46.4-32.7-46.4-18.1 0-32.8 20.8-32.8 46.4 0 25.5 14.7 46.3 32.8 46.3z"/>
		<path id="&lt;Path&gt;" class="s4" d="m374.3 227.5v0.7c0 25.6-14.7 46.3-32.7 46.3-11.4 0-21.4-8.1-27.2-20.5l-0.1-0.7c0-25.6 14.7-46.4 32.8-46.4 11.3 0 21.3 8.2 27.2 20.6z"/>
		<path id="&lt;Path&gt;" class="s3" d="m451.3 274.5c18 0 32.7-20.8 32.7-46.3 0-25.6-14.7-46.4-32.8-46.4-18 0-32.7 20.8-32.7 46.4 0 25.5 14.7 46.3 32.7 46.3z"/>
		<path id="&lt;Path&gt;" class="s4" d="m418.5 227.5v0.7c0 25.6 14.7 46.3 32.8 46.3 11.3 0 21.3-8.1 27.2-20.5v-0.7c0-25.6-14.7-46.4-32.8-46.4-11.3 0-21.3 8.2-27.2 20.6z"/>
	</g>
</svg>